<svg xmlns="http://www.w3.org/2000/svg" viewBox="0 0 35 35">
  <defs>
    <style>
      .cls-1 {
        fill: #fff;
      }
    </style>
  </defs>
  <g id="Mobile" transform="translate(-35 -1861)">
    <g id="facebook" transform="translate(35 1861)">
      <path id="Combined-Shape" class="cls-1" d="M17.5,35A17.5,17.5,0,1,1,35,17.5,17.5,17.5,0,0,1,17.5,35ZM24.846,7.444H10.154a2.71,2.71,0,0,0-2.71,2.71V24.846a2.71,2.71,0,0,0,2.71,2.71H17.4l.013-7.187H15.545a.44.44,0,0,1-.44-.439L15.1,17.614a.441.441,0,0,1,.441-.442H17.4V14.933a3.657,3.657,0,0,1,3.9-4.012h1.9a.441.441,0,0,1,.441.441v1.953a.441.441,0,0,1-.44.441H22.039c-1.26,0-1.5.6-1.5,1.478v1.938H23.3a.44.44,0,0,1,.438.492l-.275,2.317a.44.44,0,0,1-.437.389H20.547l-.013,7.187h4.312a2.71,2.71,0,0,0,2.71-2.71V10.154A2.71,2.71,0,0,0,24.846,7.444Z"/>
    </g>
  </g>
</svg>
