<svg xmlns="http://www.w3.org/2000/svg" viewBox="0 0 35 35">
  <defs>
    <style>
      .cls-1 {
        fill: #fff;
      }
    </style>
  </defs>
  <g id="gmail" transform="translate(0 0)">
    <g id="Mobile" transform="translate(-35 -1755)">
      <g id="gmail-2" data-name="gmail" transform="translate(35 1755)">
        <path id="Ausschluss_1" data-name="Ausschluss 1" class="cls-1" d="M-873.5-4247a17.387,17.387,0,0,1-12.375-5.125A17.383,17.383,0,0,1-891-4264.5a17.386,17.386,0,0,1,5.126-12.375A17.385,17.385,0,0,1-873.5-4282a17.384,17.384,0,0,1,12.374,5.126A17.386,17.386,0,0,1-856-4264.5a17.384,17.384,0,0,1-5.125,12.374A17.386,17.386,0,0,1-873.5-4247Zm-8.57-25a1.937,1.937,0,0,0-1.93,1.94v12.12a1.937,1.937,0,0,0,1.93,1.94h17.139a1.938,1.938,0,0,0,1.931-1.94v-12.12a1.938,1.938,0,0,0-1.931-1.94Zm17.139,14.737H-882.07a.676.676,0,0,1-.673-.677v-12.12a.676.676,0,0,1,.673-.677h17.139a.676.676,0,0,1,.674.677v12.12A.676.676,0,0,1-864.931-4257.263Zm-1.818-10.2v9.308h1.257v-11.634l-7.851,5.122a.29.29,0,0,1-.157.045.29.29,0,0,1-.157-.045l-7.851-5.122v11.634h1.257v-9.308l5.909,3.855a1.535,1.535,0,0,0,.841.249,1.535,1.535,0,0,0,.841-.249l5.908-3.854Z" transform="translate(891 4282)"/>
      </g>
    </g>
  </g>
</svg>
