<svg xmlns="http://www.w3.org/2000/svg" viewBox="0 0 34.554 34.555">
  <defs>
    <style>
      .cls-1 {
        fill: #fff;
      }
    </style>
  </defs>
  <g id="Mobile" transform="translate(-35 -1914)">
    <g id="twitter" transform="translate(35 1914)">
      <path id="Combined-Shape" class="cls-1" d="M17.277,34.554A17.277,17.277,0,1,1,34.554,17.277,17.277,17.277,0,0,1,17.277,34.554Zm9.575-23.589a7.818,7.818,0,0,1-1.364.46,4.25,4.25,0,0,0,1.122-1.787.223.223,0,0,0-.326-.26,7.867,7.867,0,0,1-2.085.861.527.527,0,0,1-.13.016.553.553,0,0,1-.365-.139,4.264,4.264,0,0,0-2.821-1.065,4.557,4.557,0,0,0-1.351.209,4.132,4.132,0,0,0-2.784,2.976,4.549,4.549,0,0,0-.1,1.57.153.153,0,0,1-.038.12.159.159,0,0,1-.118.053h-.015A11.181,11.181,0,0,1,8.79,9.873a.223.223,0,0,0-.365.028,4.269,4.269,0,0,0,.694,5.184,3.823,3.823,0,0,1-.973-.377.223.223,0,0,0-.331.192,4.27,4.27,0,0,0,2.491,3.933h-.091a3.818,3.818,0,0,1-.718-.069.223.223,0,0,0-.254.287,4.273,4.273,0,0,0,3.376,2.907A7.869,7.869,0,0,1,8.21,23.3H7.717a.326.326,0,0,0-.319.246.338.338,0,0,0,.162.373A11.7,11.7,0,0,0,13.441,25.5a11.861,11.861,0,0,0,5.026-1.066,11.1,11.1,0,0,0,3.677-2.755A12.079,12.079,0,0,0,24.4,17.911a11.913,11.913,0,0,0,.765-4.127v-.065a.726.726,0,0,1,.272-.565,8.43,8.43,0,0,0,1.7-1.861A.223.223,0,0,0,26.852,10.965Z"/>
    </g>
  </g>
</svg>
