<svg xmlns="http://www.w3.org/2000/svg" viewBox="0 0 24.416 23.819">
  <defs>
    <style>
      .cls-1 {
        fill: #fff;
      }
    </style>
  </defs>
  <path id="Pfad_5" data-name="Pfad 5" class="cls-1" d="M22.778,11.445A12.155,12.155,0,0,0,18.335,7a11.94,11.94,0,0,0-6.128-1.637A11.942,11.942,0,0,0,6.08,7a12.153,12.153,0,0,0-4.443,4.443A11.941,11.941,0,0,0,0,17.572a11.864,11.864,0,0,0,2.329,7.177A11.956,11.956,0,0,0,8.345,29.16a.711.711,0,0,0,.636-.111.622.622,0,0,0,.207-.477q0-.048-.008-.858T9.171,26.3l-.366.063a4.664,4.664,0,0,1-.882.056,6.721,6.721,0,0,1-1.1-.111,2.469,2.469,0,0,1-1.065-.477,2.017,2.017,0,0,1-.7-.977L4.9,24.487a3.972,3.972,0,0,0-.5-.811,1.918,1.918,0,0,0-.691-.6l-.111-.08a1.167,1.167,0,0,1-.207-.191.872.872,0,0,1-.143-.223q-.048-.111.079-.183a1.031,1.031,0,0,1,.461-.071l.318.047a2.32,2.32,0,0,1,.787.381,2.566,2.566,0,0,1,.771.826,2.8,2.8,0,0,0,.882.994,1.871,1.871,0,0,0,1.041.342,4.52,4.52,0,0,0,.906-.079A3.161,3.161,0,0,0,9.2,24.6a2.575,2.575,0,0,1,.779-1.637,10.884,10.884,0,0,1-1.629-.286,6.487,6.487,0,0,1-1.494-.62,4.279,4.279,0,0,1-1.28-1.065,5.118,5.118,0,0,1-.834-1.669,7.937,7.937,0,0,1-.326-2.384,4.636,4.636,0,0,1,1.256-3.275,4.273,4.273,0,0,1,.111-3.242,2.227,2.227,0,0,1,1.367.215,9.557,9.557,0,0,1,1.327.612q.421.254.676.429a11.48,11.48,0,0,1,6.1,0l.6-.381a8.555,8.555,0,0,1,1.462-.7,2.083,2.083,0,0,1,1.288-.175,4.232,4.232,0,0,1,.127,3.242A4.637,4.637,0,0,1,20,16.937a8.026,8.026,0,0,1-.326,2.392A4.919,4.919,0,0,1,18.829,21a4.444,4.444,0,0,1-1.288,1.057,6.5,6.5,0,0,1-1.494.62,10.873,10.873,0,0,1-1.629.286,2.831,2.831,0,0,1,.826,2.257v3.354a.633.633,0,0,0,.2.477.69.69,0,0,0,.628.111,11.955,11.955,0,0,0,6.017-4.411,11.866,11.866,0,0,0,2.329-7.177A11.951,11.951,0,0,0,22.778,11.445Z" transform="translate(0 -5.365)"/>
</svg>
