<svg xmlns="http://www.w3.org/2000/svg" viewBox="0 0 35.001 35.001">
  <defs>
    <style>
      .cls-1 {
        fill: #fff;
      }
    </style>
  </defs>
  <g id="Mobile" transform="translate(-35 -1808)">
    <g id="instagram" transform="translate(35 1808)">
      <path id="Differenzmenge_1" data-name="Differenzmenge 1" class="cls-1" d="M-873.5-4294a17.385,17.385,0,0,1-12.375-5.126A17.385,17.385,0,0,1-891-4311.5a17.385,17.385,0,0,1,5.126-12.375A17.385,17.385,0,0,1-873.5-4329a17.385,17.385,0,0,1,12.375,5.126A17.385,17.385,0,0,1-856-4311.5a17.385,17.385,0,0,1-5.126,12.375A17.385,17.385,0,0,1-873.5-4294Zm-4.327-27.747a5.926,5.926,0,0,0-5.919,5.92v8.031a5.927,5.927,0,0,0,5.92,5.92h8.031a5.927,5.927,0,0,0,5.92-5.92v-8.031a5.927,5.927,0,0,0-5.92-5.92Zm8.032,17.872h-8.031a3.925,3.925,0,0,1-3.921-3.921v-8.031a3.925,3.925,0,0,1,3.921-3.921h8.031a3.925,3.925,0,0,1,3.921,3.921v8.031A3.925,3.925,0,0,1-869.8-4303.875Zm-4.015-13.076a5.146,5.146,0,0,0-5.14,5.14,5.145,5.145,0,0,0,5.14,5.139,5.145,5.145,0,0,0,5.139-5.139A5.145,5.145,0,0,0-873.811-4316.951Zm0,8.28a3.144,3.144,0,0,1-3.141-3.14,3.145,3.145,0,0,1,3.141-3.141,3.144,3.144,0,0,1,3.14,3.141A3.143,3.143,0,0,1-873.811-4308.671Z" transform="translate(891 4329)"/>
    </g>
  </g>
</svg>
